<svg xmlns="http://www.w3.org/2000/svg" viewBox="0 0 482.41 102.53">
  <path
    d="m54.27,74.97v8.82c-5.35,3.89-10.54,6.8-15.57,8.74-5,1.93-9.93,2.89-14.77,2.89-7.28,0-13.08-2.33-17.42-6.99-4.34-4.66-6.51-10.88-6.51-18.69,0-4.92.85-9.64,2.52-14.11,1.69-4.47,4.08-8.37,7.23-11.68,3.73-4,8.21-7.1,13.42-9.32,5.22-2.22,10.62-3.34,16.23-3.34s9.8.98,12.73,2.91,4.39,4.79,4.39,8.52c0,3.36-1.27,6.14-3.81,8.29-2.54,2.14-5.93,3.39-10.19,3.71l-9.08-16.07c-3.71,2.65-6.65,6.51-8.82,11.6-2.2,5.08-3.28,10.59-3.28,16.55,0,5.08,1.14,9.03,3.39,11.86,2.25,2.83,5.4,4.26,9.48,4.26,1.35,0,2.73-.16,4.21-.48,1.46-.32,3.1-.82,4.92-1.54,1.38-.56,3.02-1.38,4.9-2.41,1.88-1.03,3.92-2.22,6.06-3.57l-.03.05Z" />
  <path
    d="m80.88,0h6.75l-2.81,12.97c4.5-4.18,8.92-7.39,13.24-9.61C102.4,1.14,106.35,0,109.95,0,114.24,0,117.55,1.06,119.85,3.2s3.57,5.29,3.81,9.53c4.74-4.21,9.24-7.39,13.53-9.53C141.48,1.06,145.42,0,149.1,0,153.21,0,156.52,1.3,159,3.89c2.52,2.59,3.76,6.01,3.76,10.27,0,.74-.08,1.59-.21,2.59s-.34,2.06-.64,3.26l-3.15,14.88c-.64,2.91-1.11,5.45-1.46,7.65-.34,2.2-.5,3.94-.5,5.24,0,2.17.48,3.73,1.4,4.69s2.49,1.43,4.69,1.43c.93,0,2.04-.13,3.34-.42,1.32-.29,2.99-.71,5-1.32v6.09c-5.08,1.91-9.64,3.34-13.63,4.29-4,.95-7.44,1.43-10.35,1.43-3.39,0-6.09-.95-8.07-2.89-2.01-1.93-3.02-4.53-3.02-7.81,0-1.22.08-2.38.21-3.49.13-1.11.34-2.22.64-3.31l4.9-20.7c.26-1.16.48-2.25.64-3.2.13-.98.21-1.75.21-2.36,0-2.3-.53-4-1.61-5.08s-2.73-1.64-4.95-1.64c-1.64,0-3.6.48-5.9,1.46-2.3.98-4.66,2.3-7.04,4l-7.23,43.81h-20.04l7.23-38.26c.24-1.4.42-2.46.53-3.18s.19-1.22.19-1.54c0-1.99-.56-3.52-1.69-4.63s-2.73-1.67-4.74-1.67c-1.8,0-3.76.42-5.9,1.3s-4.47,2.17-6.99,3.89l-7.28,44.05h-19.8l9.24-49.88-9.95-1.03v-5.72L80.96,0h-.08Z" />
  <path
    d="m195.59,38.97h7.86l-7.49,37.59c-.4,2.14-.71,4.13-.93,5.93-.21,1.83-.29,3.36-.29,4.61,0,1.75.48,3.1,1.46,4.1s2.3,1.51,4.02,1.51c.9,0,2.14-.13,3.71-.42,1.59-.29,3.63-.71,6.14-1.32v6.09c-5.32,1.88-9.95,3.26-13.95,4.13s-7.49,1.35-10.54,1.35c-4.18,0-7.28-.87-9.32-2.65s-3.04-4.45-3.04-8.05c0-.93.13-2.33.42-4.18s.69-4.02,1.22-6.49l6.33-29.84-10.72-1.4v-5.72l25.1-5.24h.03Zm2.49-30.31c3.36,0,5.96.82,7.76,2.44s2.7,3.94,2.7,6.94c0,3.49-1.22,6.35-3.65,8.58s-5.59,3.36-9.45,3.36c-3.04,0-5.51-.87-7.39-2.59s-2.83-3.92-2.83-6.62c0-3.44,1.22-6.33,3.68-8.66,2.46-2.33,5.51-3.47,9.16-3.47l.03.03Z" />

  <path
    d="m252.12,7.86c1.42,3.76,2.93,7.75,4.53,11.97,1.6,4.22,3.22,8.4,4.85,12.54,1.63,4.14,3.21,8.05,4.74,11.72,1.53,3.68,2.94,6.87,4.22,9.57-1.06-.08-2.06-.16-3.01-.23-.95-.07-1.88-.1-2.8-.1s-1.85.03-2.8.1c-.95.07-1.88.15-2.8.23-.7-2.23-1.42-4.48-2.17-6.75s-1.55-4.53-2.38-6.79c-1.39-.03-2.79-.06-4.2-.08-1.41-.03-2.81-.04-4.2-.04-1.17,0-2.33.01-3.47.04-1.14.03-2.27.06-3.39.08-.89,2.26-1.71,4.51-2.47,6.75-.75,2.24-1.44,4.51-2.05,6.79-.53-.08-1.04-.16-1.55-.23-.5-.07-1.02-.1-1.55-.1s-1.06.03-1.59.1c-.53.07-1.1.15-1.71.23.53-1.23,1.23-2.86,2.11-4.91.88-2.05,1.86-4.35,2.95-6.9,1.09-2.55,2.23-5.29,3.43-8.21,1.2-2.93,2.4-5.88,3.61-8.86,1.21-2.98,2.39-5.92,3.53-8.82,1.14-2.9,2.19-5.6,3.13-8.11.45.08.87.16,1.27.23.4.07.81.1,1.23.1.45,0,.87-.03,1.27-.1.4-.07.81-.15,1.23-.23Zm.88,28.42c-.95-2.67-1.89-5.31-2.84-7.92-.95-2.61-1.96-5.2-3.05-7.79-1.14,2.59-2.21,5.19-3.22,7.79-1,2.61-1.99,5.24-2.97,7.92h12.08Z" />
  <path
    d="m277.24,26.42c0-1.84,0-3.54-.02-5.12-.01-1.57-.04-3.1-.08-4.58-.04-1.48-.1-2.9-.17-4.28-.07-1.38-.15-2.79-.23-4.24.75.08,1.57.15,2.44.21.88.06,1.86.08,2.95.08s2.08-.03,2.97-.08c.89-.06,1.71-.13,2.47-.21-.11,1.45-.2,2.86-.25,4.24-.06,1.38-.11,2.81-.17,4.28-.06,1.48-.1,3-.13,4.58-.03,1.57-.04,3.28-.04,5.12v8.99c0,2.48.01,4.89.04,7.23.03,2.34.07,4.37.13,6.1,2.51,0,5.01-.07,7.52-.21,2.51-.14,5.03-.36,7.56-.67-.08.5-.15.95-.19,1.34-.04.39-.06.93-.06,1.63s.02,1.25.06,1.65c.04.4.1.8.19,1.19-1.2-.06-2.66-.13-4.39-.21-1.73-.08-4.11-.13-7.15-.13-2.67,0-4.83.01-6.48.04-1.64.03-2.97.06-3.97.1-1,.04-1.76.07-2.26.08-.5.01-.92.05-1.25.1.08-1.45.16-2.86.23-4.24.07-1.38.13-2.81.17-4.28.04-1.48.07-3.01.08-4.6.01-1.59.02-3.3.02-5.14v-8.99Z" />
  <path
    d="m330.27,54.5c-2.79,0-5.4-.32-7.84-.96-2.44-.64-4.56-1.66-6.37-3.07-1.81-1.41-3.23-3.19-4.26-5.35-1.03-2.16-1.55-4.81-1.55-7.96,0-1.76,0-3.32.02-4.7.01-1.38.02-2.65.02-3.82s.01-2.35.04-3.45c.03-1.1.04-2.24.04-3.41,0-3.54-.02-6.41-.06-8.63s-.1-3.87-.19-4.95c.86.08,1.76.15,2.67.21.92.06,1.82.08,2.72.08s1.8-.03,2.72-.08c.92-.06,1.81-.13,2.67-.21-.2,2.15-.35,4.2-.46,6.16-.11,1.96-.2,3.88-.27,5.75-.07,1.87-.12,3.72-.15,5.56-.03,1.84-.04,3.71-.04,5.6,0,4.04.29,7.28.88,9.72.59,2.44,1.43,4.33,2.55,5.66,1.11,1.34,2.49,2.23,4.12,2.67,1.63.45,3.52.67,5.66.67,2.62,0,4.67-.66,6.16-1.99,1.49-1.32,2.63-3.09,3.41-5.29.78-2.2,1.25-4.72,1.42-7.54.17-2.83.25-5.79.25-8.88s-.04-6.02-.13-9.05c-.08-3.02-.21-6.04-.38-9.05,1.23.2,2.34.29,3.34.29.58,0,1.13-.03,1.65-.08.52-.06,1.07-.13,1.65-.21-.08.95-.18,2.24-.29,3.87-.11,1.63-.21,3.51-.29,5.64-.08,2.13-.15,4.49-.21,7.06-.06,2.58-.08,5.29-.08,8.13,0,7.63-1.64,13.14-4.93,16.53-3.29,3.39-8.12,5.08-14.5,5.08Z" />
  <path
    d="m366.71,23.74c-.7,5.01-1.22,10-1.57,14.96-.35,4.96-.7,9.95-1.07,14.96-.5-.08-1.02-.16-1.57-.23-.54-.07-1.05-.1-1.53-.1-.53,0-1.04.03-1.55.1-.5.07-1.02.15-1.55.23,1.39-7.63,2.65-15.21,3.76-22.73,1.11-7.52,2.13-15.1,3.05-22.73.47.08.92.15,1.34.21.42.06.88.08,1.38.08.75,0,1.63-.1,2.63-.29,1.17,2.62,2.4,5.29,3.7,8.02,1.3,2.73,2.59,5.45,3.89,8.15,1.3,2.7,2.59,5.35,3.89,7.94,1.3,2.59,2.54,5.06,3.74,7.4,2.62-4.93,5.24-10.1,7.86-15.5,2.62-5.41,5.11-10.74,7.48-16.01,1,.2,1.95.29,2.84.29.84,0,1.76-.1,2.76-.29.45,3.76.91,7.82,1.38,12.18.47,4.36.97,8.62,1.48,12.77.52,4.15,1.02,8.03,1.5,11.64.49,3.61.93,6.57,1.32,8.88-.89-.08-1.78-.16-2.67-.23-.89-.07-1.78-.1-2.68-.1s-1.8.03-2.72.1c-.92.07-1.84.15-2.76.23-.22-4.62-.58-9.59-1.09-14.9-.5-5.31-1.02-10.54-1.55-15.69h-.13c-2.51,5.15-4.97,10.26-7.4,15.32-2.42,5.06-4.82,10.15-7.19,15.28-.22-.06-.43-.09-.63-.1-.2-.01-.39-.02-.58-.02-.25,0-.47,0-.67.02-.2.01-.39.05-.59.1-2.4-5.02-4.76-10-7.1-14.96-2.34-4.96-4.76-9.95-7.27-14.96h-.17Z" />
  <path
    d="m420.67,21.32c0-3.01-.04-5.55-.13-7.63-.08-2.07-.17-3.91-.25-5.5,1.11.2,2.12.29,3.01.29s1.85-.1,2.97-.29c4.76,5.27,9.5,10.49,14.21,15.67,4.71,5.18,9.5,10.41,14.38,15.67v-12.12c0-2.15,0-4.26-.02-6.35-.01-2.09-.05-4.01-.1-5.77-.06-1.76-.1-3.26-.15-4.51-.04-1.25-.1-2.12-.19-2.59,1.09.2,2.07.29,2.97.29s1.85-.1,2.97-.29c-.2,3.2-.34,6.14-.44,8.82-.1,2.68-.2,5.21-.29,7.61s-.17,4.71-.21,6.94c-.04,2.23-.07,4.49-.08,6.79-.01,2.3-.02,4.7-.02,7.21v8.11l-1.38-.25c-.42-.06-.86-.08-1.34-.08-.84,0-1.69.11-2.55.33-4.54-5.38-9.2-10.72-13.98-16.03-4.78-5.31-9.73-10.64-14.86-15.99-.08,2.51-.13,5.07-.13,7.69v7.65c0,2.65.01,4.89.04,6.73.03,1.84.06,3.4.1,4.68.04,1.28.08,2.33.13,3.13.04.81.09,1.52.15,2.13-.53-.08-1.06-.16-1.59-.23-.53-.07-1.03-.1-1.5-.1-.95,0-1.96.11-3.05.33.06-.31.13-1.01.21-2.11.08-1.1.18-2.47.29-4.12.11-1.64.21-3.51.29-5.6.08-2.09.17-4.29.27-6.6.1-2.31.17-4.65.21-7.02.04-2.37.06-4.67.06-6.9Z" />
  <path
    d="m471.57,26.42c0-1.84,0-3.54-.02-5.12-.01-1.57-.04-3.1-.08-4.58-.04-1.48-.1-2.9-.17-4.28-.07-1.38-.15-2.79-.23-4.24.75.08,1.57.15,2.44.21.88.06,1.86.08,2.95.08s2.11-.03,2.99-.08c.88-.06,1.69-.13,2.45-.21-.08,1.45-.16,2.86-.23,4.24-.07,1.38-.13,2.81-.17,4.28s-.08,3-.1,4.58c-.03,1.57-.04,3.28-.04,5.12v8.99c0,1.84.01,3.55.04,5.14.03,1.59.06,3.12.1,4.6.04,1.48.1,2.9.17,4.28.07,1.38.15,2.79.23,4.24-.75-.08-1.57-.16-2.45-.23-.88-.07-1.87-.1-2.99-.1s-2.07.03-2.95.1c-.88.07-1.69.15-2.44.23.08-1.45.16-2.86.23-4.24.07-1.38.13-2.81.17-4.28.04-1.48.07-3.01.08-4.6.01-1.59.02-3.3.02-5.14v-8.99Z" />

  <path
    d="m242.91,69.74c.84,2.22,1.73,4.57,2.68,7.06.95,2.49,1.9,4.96,2.86,7.4.96,2.44,1.89,4.75,2.8,6.92.9,2.17,1.73,4.05,2.49,5.65-.62-.05-1.22-.1-1.78-.14-.56-.04-1.11-.06-1.65-.06s-1.09.02-1.65.06c-.56.04-1.11.09-1.65.14-.41-1.32-.84-2.64-1.28-3.98s-.91-2.68-1.41-4.01c-.82-.02-1.65-.03-2.48-.05-.83-.02-1.66-.02-2.48-.02-.69,0-1.37,0-2.05.02-.67.02-1.34.03-2,.05-.53,1.33-1.01,2.66-1.45,3.98s-.85,2.66-1.21,4.01c-.31-.05-.62-.1-.91-.14s-.6-.06-.91-.06-.62.02-.94.06c-.31.04-.65.09-1.01.14.31-.72.73-1.69,1.25-2.9s1.1-2.56,1.74-4.07c.64-1.5,1.32-3.12,2.02-4.85.71-1.73,1.42-3.47,2.13-5.23.72-1.76,1.41-3.49,2.08-5.2.67-1.71,1.29-3.3,1.85-4.78.26.05.51.09.75.14.24.04.48.06.73.06.26,0,.51-.02.75-.06.24-.04.48-.09.73-.14Zm.52,16.77c-.56-1.58-1.12-3.13-1.68-4.67-.56-1.54-1.16-3.07-1.8-4.6-.67,1.53-1.31,3.06-1.9,4.6-.59,1.54-1.18,3.09-1.75,4.67h7.13Z" />
  <path
    d="m269.2,75.19c-.82-2.24-2.38-3.35-4.68-3.35-1.2,0-2.17.35-2.92,1.05-.75.7-1.12,1.52-1.12,2.45s.29,1.76.88,2.37c.58.61,1.31,1.16,2.19,1.65.88.49,1.82.96,2.84,1.41,1.01.44,1.96,1,2.84,1.66.88.67,1.61,1.47,2.19,2.42.58.95.88,2.16.88,3.64,0,1.3-.25,2.48-.74,3.55-.49,1.07-1.19,1.99-2.1,2.77-.9.78-1.98,1.39-3.24,1.81-1.26.43-2.66.64-4.2.64-1.41,0-2.67-.16-3.77-.49-1.1-.33-1.93-.72-2.49-1.16.25-.92.46-1.75.64-2.5.18-.75.34-1.56.47-2.43h.74c.1.56.28,1.09.55,1.6.27.51.64.96,1.1,1.34s1,.69,1.62.91c.62.22,1.32.33,2.11.33,1.53,0,2.67-.39,3.41-1.17.75-.78,1.12-1.71,1.12-2.8,0-.99-.28-1.79-.85-2.42-.57-.62-1.28-1.18-2.13-1.65-.85-.48-1.79-.95-2.81-1.41-1.02-.46-1.95-1.01-2.8-1.65-.85-.64-1.56-1.43-2.13-2.38-.58-.95-.86-2.16-.86-3.64,0-1.35.24-2.54.73-3.59.48-1.04,1.13-1.91,1.94-2.6.81-.69,1.73-1.22,2.77-1.59,1.04-.37,2.15-.56,3.32-.56,1.4,0,2.62.17,3.67.51,1.05.34,1.96.81,2.71,1.42-.25.59-.45,1.17-.62,1.73-.16.56-.38,1.27-.64,2.12h-.59Z" />
  <path
    d="m288.63,75.19c-.82-2.24-2.38-3.35-4.68-3.35-1.2,0-2.17.35-2.92,1.05-.75.7-1.12,1.52-1.12,2.45s.29,1.76.88,2.37c.58.61,1.31,1.16,2.19,1.65.88.49,1.82.96,2.84,1.41,1.01.44,1.96,1,2.84,1.66.88.67,1.61,1.47,2.19,2.42.58.95.88,2.16.88,3.64,0,1.3-.25,2.48-.74,3.55-.49,1.07-1.19,1.99-2.1,2.77-.9.78-1.98,1.39-3.24,1.81-1.26.43-2.66.64-4.2.64-1.41,0-2.67-.16-3.77-.49-1.1-.33-1.93-.72-2.49-1.16.25-.92.46-1.75.64-2.5.18-.75.34-1.56.47-2.43h.74c.1.56.28,1.09.55,1.6.27.51.64.96,1.1,1.34s1,.69,1.62.91c.62.22,1.32.33,2.11.33,1.53,0,2.67-.39,3.41-1.17.75-.78,1.12-1.71,1.12-2.8,0-.99-.28-1.79-.85-2.42-.57-.62-1.28-1.18-2.13-1.65-.85-.48-1.79-.95-2.81-1.41-1.02-.46-1.95-1.01-2.8-1.65-.85-.64-1.56-1.43-2.13-2.38-.58-.95-.86-2.16-.86-3.64,0-1.35.24-2.54.73-3.59.48-1.04,1.13-1.91,1.94-2.6.81-.69,1.73-1.22,2.77-1.59,1.04-.37,2.15-.56,3.32-.56,1.4,0,2.62.17,3.67.51,1.05.34,1.96.81,2.71,1.42-.25.59-.45,1.17-.62,1.73-.16.56-.38,1.27-.64,2.12h-.59Z" />
  <path
    d="m294.5,83.35c0-1.92.36-3.73,1.07-5.41.72-1.68,1.72-3.16,3.02-4.44,1.3-1.27,2.87-2.27,4.71-3,1.84-.72,3.89-1.09,6.14-1.09,2.04,0,3.96.29,5.77.86,1.81.58,3.37,1.43,4.68,2.58,1.31,1.14,2.35,2.59,3.12,4.33.76,1.74,1.15,3.79,1.15,6.14,0,1.91-.37,3.71-1.1,5.4-.73,1.69-1.75,3.18-3.07,4.45-1.32,1.27-2.88,2.27-4.7,3-1.82.72-3.81,1.08-5.98,1.08-2.05,0-3.98-.27-5.77-.81-1.79-.54-3.36-1.38-4.7-2.5-1.34-1.13-2.4-2.56-3.18-4.31-.78-1.75-1.17-3.84-1.17-6.28Zm23.28-.86c0-1.68-.21-3.18-.62-4.51-.41-1.33-.99-2.47-1.73-3.4-.74-.94-1.63-1.66-2.68-2.17-1.04-.51-2.19-.76-3.44-.76-1.32,0-2.5.32-3.55.96-1.05.64-1.94,1.5-2.66,2.59-.72,1.09-1.27,2.36-1.65,3.82s-.57,3.02-.57,4.68c0,2.07.22,3.82.65,5.24.44,1.42,1.03,2.57,1.79,3.44.76.87,1.63,1.5,2.61,1.9s2.02.59,3.11.59c1.17,0,2.28-.25,3.34-.74s1.99-1.25,2.79-2.27c.8-1.02,1.43-2.3,1.9-3.85s.7-3.39.7-5.52Z" />
  <path
    d="m350.03,92.25c-.2.54-.37,1.09-.53,1.65-.16.56-.26,1.11-.31,1.65-1.04.54-2.22.96-3.54,1.26-1.32.3-2.79.44-4.4.44-2.25,0-4.27-.33-6.04-.99-1.78-.66-3.28-1.57-4.51-2.74s-2.17-2.54-2.82-4.13c-.65-1.59-.97-3.29-.97-5.12,0-2.68.42-4.96,1.27-6.85.85-1.89,1.98-3.42,3.39-4.6,1.41-1.18,3.05-2.04,4.92-2.59,1.87-.55,3.82-.83,5.86-.83.67,0,1.39.05,2.15.14s1.48.23,2.18.42c.7.19,1.36.39,2,.62.63.22,1.17.47,1.62.75-.26.64-.46,1.29-.6,1.95-.14.66-.24,1.33-.31,2.02h-.52c-.99-1.23-2-2.12-3.05-2.66-1.04-.54-2.26-.81-3.66-.81-1.02,0-2.06.23-3.11.7-1.05.47-2.01,1.18-2.86,2.14-.85.96-1.55,2.19-2.08,3.69-.53,1.5-.8,3.27-.8,5.33s.27,3.71.81,5.12c.54,1.41,1.25,2.56,2.12,3.45.87.9,1.86,1.55,2.96,1.97,1.1.42,2.21.63,3.33.63.61,0,1.24-.07,1.89-.22.65-.15,1.29-.35,1.91-.59.62-.25,1.22-.55,1.78-.91.56-.36,1.04-.76,1.45-1.21l.49.32Z" />
  <path
    d="m355.08,80.69c0-1.08,0-2.09-.01-3.02,0-.93-.02-1.83-.05-2.7-.02-.87-.06-1.71-.1-2.53-.04-.81-.09-1.65-.14-2.5.44.05.92.09,1.44.12.52.03,1.1.05,1.74.05s1.24-.02,1.76-.05,1-.07,1.44-.12c-.05.85-.09,1.69-.14,2.5-.04.81-.07,1.66-.1,2.53-.02.87-.05,1.77-.06,2.7-.02.93-.02,1.94-.02,3.02v5.3c0,1.09,0,2.1.02,3.03s.04,1.84.06,2.71c.02.87.06,1.71.1,2.53.04.81.09,1.65.14,2.5-.44-.05-.92-.1-1.44-.14s-1.11-.06-1.76-.06-1.22.02-1.74.06c-.52.04-1,.09-1.44.14.05-.85.09-1.69.14-2.5.04-.81.07-1.66.1-2.53.02-.87.04-1.78.05-2.71,0-.94.01-1.95.01-3.03v-5.3Z" />
  <path
    d="m379,69.74c.84,2.22,1.73,4.57,2.68,7.06.95,2.49,1.9,4.96,2.86,7.4.96,2.44,1.89,4.75,2.8,6.92.9,2.17,1.73,4.05,2.49,5.65-.62-.05-1.22-.1-1.78-.14-.56-.04-1.11-.06-1.65-.06s-1.09.02-1.65.06c-.56.04-1.11.09-1.65.14-.41-1.32-.84-2.64-1.28-3.98-.44-1.34-.91-2.68-1.41-4.01-.82-.02-1.65-.03-2.48-.05-.83-.02-1.66-.02-2.48-.02-.69,0-1.37,0-2.05.02-.67.02-1.34.03-2,.05-.53,1.33-1.01,2.66-1.45,3.98s-.85,2.66-1.21,4.01c-.31-.05-.62-.1-.91-.14-.3-.04-.6-.06-.91-.06s-.62.02-.94.06c-.31.04-.65.09-1.01.14.31-.72.73-1.69,1.24-2.9s1.1-2.56,1.74-4.07c.64-1.5,1.31-3.12,2.02-4.85.71-1.73,1.42-3.47,2.13-5.23.71-1.76,1.41-3.49,2.08-5.2.67-1.71,1.29-3.3,1.85-4.78.26.05.51.09.75.14.24.04.48.06.73.06.26,0,.51-.02.75-.06.24-.04.48-.09.73-.14Zm.52,16.77c-.56-1.58-1.12-3.13-1.68-4.67-.56-1.54-1.16-3.07-1.8-4.6-.67,1.53-1.31,3.06-1.9,4.6-.59,1.54-1.18,3.09-1.75,4.67h7.13Z" />
  <path
    d="m396.26,76.27c0-.76,0-1.45-.01-2.07,0-.62-.04-1.08-.09-1.36-.39,0-.88.01-1.44.04-.57.02-1.18.06-1.82.11-.65.05-1.31.1-1.99.16-.67.06-1.3.12-1.87.19.05-.28.09-.56.14-.84.04-.28.06-.57.06-.86,0-.28-.02-.56-.06-.85-.04-.29-.09-.57-.14-.85.89.02,1.68.04,2.39.06.71.02,1.43.04,2.17.06.74.02,1.54.03,2.42.04.87,0,1.91.01,3.13.01s2.24,0,3.12-.01c.88,0,1.68-.02,2.4-.04.72-.02,1.42-.04,2.1-.06.67-.02,1.43-.05,2.27-.06-.05.28-.1.56-.15.85-.05.29-.07.57-.07.85,0,.3.02.58.07.86l.15.84c-.53-.07-1.11-.13-1.76-.19-.65-.06-1.29-.11-1.92-.16-.63-.05-1.23-.09-1.8-.11-.57-.02-1.05-.04-1.44-.04-.05.28-.07.73-.07,1.36v11.79c0,1.09,0,2.1.01,3.03s.02,1.84.05,2.71.06,1.71.1,2.53c.04.81.09,1.65.14,2.5-.43-.05-.9-.1-1.42-.14s-1.11-.06-1.76-.06-1.25.02-1.76.06-.99.09-1.42.14c.05-.85.09-1.69.14-2.5.04-.81.07-1.66.1-2.53s.04-1.78.05-2.71c0-.94.01-1.95.01-3.03v-9.71Z" />
  <path
    d="m413.44,80.69c0-1.08,0-2.09-.01-3.02,0-.93-.02-1.83-.05-2.7-.02-.87-.06-1.71-.1-2.53-.04-.81-.09-1.65-.14-2.5.44.05.92.09,1.44.12s1.1.05,1.74.05,1.24-.02,1.76-.05,1-.07,1.44-.12c-.05.85-.09,1.69-.14,2.5-.04.81-.07,1.66-.1,2.53-.02.87-.05,1.77-.06,2.7-.02.93-.02,1.94-.02,3.02v5.3c0,1.09,0,2.1.02,3.03s.04,1.84.06,2.71c.02.87.06,1.71.1,2.53.04.81.09,1.65.14,2.5-.44-.05-.92-.1-1.44-.14s-1.11-.06-1.76-.06-1.22.02-1.74.06-1,.09-1.44.14c.05-.85.09-1.69.14-2.5.04-.81.07-1.66.1-2.53.02-.87.04-1.78.05-2.71,0-.94.01-1.95.01-3.03v-5.3Z" />
  <path
    d="m424.15,83.35c0-1.92.36-3.73,1.07-5.41.72-1.68,1.72-3.16,3.02-4.44,1.3-1.27,2.87-2.27,4.71-3s3.89-1.09,6.14-1.09c2.04,0,3.96.29,5.77.86,1.81.58,3.37,1.43,4.68,2.58,1.32,1.14,2.36,2.59,3.12,4.33.76,1.74,1.15,3.79,1.15,6.14,0,1.91-.37,3.71-1.1,5.4-.73,1.69-1.76,3.18-3.07,4.45-1.32,1.27-2.88,2.27-4.7,3-1.82.72-3.81,1.08-5.98,1.08-2.06,0-3.98-.27-5.77-.81-1.79-.54-3.36-1.38-4.7-2.5-1.34-1.13-2.4-2.56-3.18-4.31-.78-1.75-1.17-3.84-1.17-6.28Zm23.28-.86c0-1.68-.21-3.18-.62-4.51-.41-1.33-.99-2.47-1.73-3.4-.74-.94-1.63-1.66-2.68-2.17-1.04-.51-2.19-.76-3.44-.76-1.32,0-2.5.32-3.55.96-1.05.64-1.94,1.5-2.66,2.59-.72,1.09-1.27,2.36-1.65,3.82s-.57,3.02-.57,4.68c0,2.07.22,3.82.65,5.24s1.03,2.57,1.79,3.44c.76.87,1.63,1.5,2.61,1.9.99.39,2.02.59,3.11.59,1.17,0,2.28-.25,3.34-.74,1.06-.49,1.99-1.25,2.79-2.27.8-1.02,1.43-2.3,1.9-3.85.47-1.55.7-3.39.7-5.52Z" />
  <path
    d="m459.01,77.68c0-1.78-.02-3.28-.07-4.5-.05-1.22-.1-2.31-.15-3.24.66.12,1.25.17,1.78.17s1.09-.06,1.75-.17c2.81,3.11,5.61,6.19,8.38,9.25,2.78,3.06,5.6,6.14,8.48,9.25v-7.15c0-1.27,0-2.52-.01-3.75,0-1.23-.03-2.37-.06-3.4-.03-1.04-.06-1.92-.09-2.66-.02-.74-.06-1.25-.11-1.53.64.12,1.22.17,1.75.17s1.09-.06,1.75-.17c-.12,1.89-.2,3.63-.26,5.2-.06,1.58-.12,3.07-.17,4.49-.06,1.41-.1,2.78-.12,4.09-.02,1.32-.04,2.65-.05,4.01s-.01,2.77-.01,4.25v4.78l-.81-.15c-.25-.03-.51-.05-.79-.05-.49,0-.99.07-1.5.2-2.68-3.17-5.43-6.32-8.25-9.46-2.82-3.13-5.74-6.28-8.77-9.43-.05,1.48-.07,2.99-.07,4.54v4.51c0,1.56,0,2.88.02,3.97.02,1.08.04,2.01.06,2.76.02.76.05,1.37.07,1.85.02.48.05.9.09,1.26-.31-.05-.62-.1-.94-.14-.31-.04-.61-.06-.89-.06-.56,0-1.16.07-1.8.2.03-.18.07-.6.12-1.25.05-.65.11-1.46.17-2.43.07-.97.12-2.07.17-3.3.05-1.23.1-2.53.16-3.9.06-1.36.1-2.75.12-4.14.02-1.4.04-2.75.04-4.07Z" />
</svg>